# xmcd CD database file
#
# Track frame offsets:
#	150
#	14311
#	32420
#	47323
#	64384
#	81304
#	98534
#	117800
#	133912
#	148550
#	165439
#	183836
#
# Disc length: 3077 seconds
#
# Revision: 0
# Processed by: cddbd v1.5.1PL2 Copyright (c) Steve Scherf et al.
# Submitted via: CDex 1.51
#
DISCID=910c030c
DTITLE=Greg Champion - The Shack Tapes
DYEAR=2006
DGENRE=Country
TTITLE0=Come This Far
TTITLE1=Keep The Kettle Boiling
TTITLE2=Walk Alongside You
TTITLE3=Out To Winchelsea
TTITLE4=Benn There Done That (Like To Do It Again)
TTITLE5=Somebody Needs Me
TTITLE6=This Train I'm On
TTITLE7=Stratford To Yarram
TTITLE8=Undying Flower
TTITLE9=Melbourne Town
TTITLE10=Big Country Town
TTITLE11=Satisfied
EXTD=YEAR: 2006
EXTT0=
EXTT1=
EXTT2=
EXTT3=
EXTT4=
EXTT5=
EXTT6=
EXTT7=
EXTT8=
EXTT9=
EXTT10=
EXTT11=
PLAYORDER=
